<?xml version="1.0" standalone="no"?><?xml-stylesheet type="text/css" href="https://www.processon.com/themes/default/mind/icons/icons.css" ?><!DOCTYPE svg PUBLIC "-//W3C//DTD SVG 1.1//EN" "http://www.w3.org/Graphics/SVG/1.1/DTD/svg11.dtd">
<svg xmlns="http://www.w3.org/2000/svg" version="1.1" xlink="http://www.w3.org/1999/xlink" id="mind-svg-con" width="1576px" height="1863px" style="position: absolute; left: 0px; top: 0px; width: 1576px; height: 1863px; background: rgb(10, 15, 50); z-index: 999;"><defs></defs><g id="svgbackgroundid"><defs></defs><rect x="0" y="0" width="1576" height="1863" fill="#0A0F32"></rect></g><g transform="translate(-9872, -8991)" id="sdjakdjak5"><defs></defs><g class="svg-topic-con" transform="translate(0.5,0.5)"><path part="right" sub="true" id="line_36ea6654722e" d="M 10000 9936 L 10093 9936 C 10133 9936 10133 9074.5 10198 9074.5 L 10258 9074.5" stroke="#F88A35" fill="none" stroke-linecap="round" stroke-width="3"></path><path part="right" sub="true" id="line_a762fefda4c3" d="M 10000 9936 L 10093 9936 C 10133 9936 10133 9504.5 10198 9504.5 L 10258 9504.5" stroke="#0F80C4" fill="none" stroke-linecap="round" stroke-width="3"></path><path part="right" sub="true" id="line_5ab575c2b0b9" d="M 10000 9936 L 10093 9936 C 10133 9936 10133 10336.5 10198 10336.5 L 10290 10336.5" stroke="#0FBAB0" fill="none" stroke-linecap="round" stroke-width="3"></path><path part="right" sub="true" id="line_60547f3823fe" d="M 10000 9936 L 10093 9936 C 10133 9936 10133 10822.5 10198 10822.5 L 10450 10822.5" stroke="#F5479C" fill="none" stroke-linecap="round" stroke-width="3"></path></g><g class="svg-connection-con" transform="translate(0.5,0.5)"></g><g class="svg-freesums-con" transform="translate(0.5,0.5)"></g><g class="svg-freebos-con" transform="translate(0.5,0.5)"></g></g><g id="60547f3823fe"><rect x="326" y="1801" rx="1px" ry="1px" width="252" height="30" style="fill: transparent; stroke:none;"></rect><g><text text-anchor="start" align="top" anchor="start" font-size="16px" font-weight="normal" fill="rgb(255, 255, 255)" style="font-size:16px;font-family: 微软雅黑;color:#FFFFFF;font-style:normal;text-align:left;font-weight:normal;font-style: normal;"><tspan x="340" y="1822.65625"><tspan>分析业内前前檐脚手架（对比）</tspan></tspan></text></g></g><g id="5ab575c2b0b9"><rect x="326" y="1315.109375" rx="1px" ry="1px" width="92" height="30" style="fill: transparent; stroke:none;"></rect><g><text text-anchor="start" align="top" anchor="start" font-size="16px" font-weight="normal" fill="rgb(255, 255, 255)" style="font-size:16px;font-family: 微软雅黑;color:#FFFFFF;font-style:normal;text-align:left;font-weight:normal;font-style: normal;"><tspan x="340" y="1336.765625"><tspan>基本功能</tspan></tspan></text></g></g><g id="29fba9b82a3f"><rect x="494" y="1130.859375" rx="1px" ry="1px" width="48" height="29" style="fill: transparent; stroke:none;"></rect><g><text text-anchor="start" align="top" anchor="start" font-size="14px" font-weight="400" fill="rgb(255, 255, 255)" style="font-size:14px;font-family: 微软雅黑;color:#FFFFFF;font-style:normal;text-align:left;font-weight:400;font-style: normal;"><tspan x="503" y="1151.4375"><tspan>init</tspan></tspan></text></g></g><g id="4116d0483267"><rect x="618" y="1038.515625" rx="1px" ry="1px" width="158" height="29" style="fill: transparent; stroke:none;"></rect><g><text text-anchor="start" align="top" anchor="start" font-size="14px" font-weight="400" fill="rgb(255, 255, 255)" style="font-size:14px;font-family: 微软雅黑;color:#FFFFFF;font-style:normal;text-align:left;font-weight:400;font-style: normal;"><tspan x="627" y="1059.09375"><tspan>是否支持多种项目类型</tspan></tspan></text></g></g><g id="f588ee1439e1"><rect x="852" y="891" rx="1px" ry="1px" width="172" height="29" style="fill: transparent; stroke:none;"></rect><g><text text-anchor="start" align="top" anchor="start" font-size="14px" font-weight="400" fill="rgb(255, 255, 255)" style="font-size:14px;font-family: 微软雅黑;color:#FFFFFF;font-style:normal;text-align:left;font-weight:400;font-style: normal;"><tspan x="861" y="911.578125"><tspan>否（一个模版包含所有）</tspan></tspan></text></g></g><g id="44bb26ce7295"><rect x="852" y="1061.609375" rx="1px" ry="1px" width="48" height="30" style="fill: transparent; stroke:none;"></rect><g><text text-anchor="start" align="top" anchor="start" font-size="14px" font-weight="400" fill="rgb(255, 255, 255)" style="font-size:14px;font-family: 微软雅黑;color:#FFFFFF;font-style:normal;text-align:left;font-weight:400;font-style: normal;"><tspan x="861" y="1082.1875"><tspan>是</tspan></tspan></text></g></g><g id="68180056a720"><rect x="976" y="1061.609375" rx="1px" ry="1px" width="74" height="30" style="fill: transparent; stroke:none;"></rect><g><text text-anchor="start" align="top" anchor="start" font-size="14px" font-weight="400" fill="rgb(255, 255, 255)" style="font-size:14px;font-family: 微软雅黑;color:#FFFFFF;font-style:normal;text-align:left;font-weight:400;font-style: normal;"><tspan x="985" y="1082.1875"><tspan>模版管理</tspan></tspan></text></g></g><g id="37fb4c5204b2"><rect x="1126" y="960.25" rx="1px" ry="1px" width="136" height="29" style="fill: transparent; stroke:none;"></rect><g><text text-anchor="start" align="top" anchor="start" font-size="14px" font-weight="400" fill="rgb(255, 255, 255)" style="font-size:14px;font-family: 微软雅黑;color:#FFFFFF;font-style:normal;text-align:left;font-weight:400;font-style: normal;"><tspan x="1135" y="980.828125"><tspan>git repo download</tspan></tspan></text></g></g><g id="7df2ba020d52"><rect x="1337.78125" y="960.25" rx="1px" ry="1px" width="48" height="29" style="fill: transparent; stroke:none;"></rect><g><text text-anchor="start" align="top" anchor="start" font-size="14px" font-weight="400" fill="rgb(255, 255, 255)" style="font-size:14px;font-family: 微软雅黑;color:#FFFFFF;font-style:normal;text-align:left;font-weight:400;font-style: normal;"><tspan x="1346.78125" y="980.828125"><tspan>常见</tspan></tspan></text></g></g><g id="a4b325b6c93a"><rect x="1461.78125" y="937.171875" rx="1px" ry="1px" width="84" height="29" style="fill: transparent; stroke:none;"></rect><g><text text-anchor="start" align="top" anchor="start" font-size="14px" font-weight="400" fill="rgb(255, 255, 255)" style="font-size:14px;font-family: 微软雅黑;color:#FFFFFF;font-style:normal;text-align:left;font-weight:400;font-style: normal;"><tspan x="1470.78125" y="957.75"><tspan>vue-cli@2</tspan></tspan></text></g></g><g id="c9c831865cd0"><rect x="1461.78125" y="983.34375" rx="1px" ry="1px" width="67" height="29" style="fill: transparent; stroke:none;"></rect><g><text text-anchor="start" align="top" anchor="start" font-size="14px" font-weight="400" fill="rgb(255, 255, 255)" style="font-size:14px;font-family: 微软雅黑;color:#FFFFFF;font-style:normal;text-align:left;font-weight:400;font-style: normal;"><tspan x="1470.78125" y="1003.921875"><tspan>midway</tspan></tspan></text></g></g><g id="bfe636e81661"><rect x="1126" y="1061.609375" rx="1px" ry="1px" width="88" height="29" style="fill: transparent; stroke:none;"></rect><g><text text-anchor="start" align="top" anchor="start" font-size="14px" font-weight="400" fill="rgb(255, 255, 255)" style="font-size:14px;font-family: 微软雅黑;color:#FFFFFF;font-style:normal;text-align:left;font-weight:400;font-style: normal;"><tspan x="1135" y="1082.1875"><tspan>利用npm包</tspan></tspan></text></g></g><g id="a0446dc85042"><rect x="1290" y="1029.515625" rx="1px" ry="1px" width="109" height="29" style="fill: transparent; stroke:none;"></rect><g><text text-anchor="start" align="top" anchor="start" font-size="14px" font-weight="400" fill="rgb(255, 255, 255)" style="font-size:14px;font-family: 微软雅黑;color:#FFFFFF;font-style:normal;text-align:left;font-weight:400;font-style: normal;"><tspan x="1299" y="1050.09375"><tspan>常见的（cra）</tspan></tspan></text></g></g><g id="7fd7b682807b"><rect x="1290" y="1075.6875" rx="1px" ry="1px" width="242" height="47" style="fill: transparent; stroke:none;"></rect><g><text text-anchor="start" align="top" anchor="start" font-size="14px" font-weight="400" fill="rgb(255, 255, 255)" style="font-size:14px;font-family: 微软雅黑;color:#FFFFFF;font-style:normal;text-align:left;font-weight:400;font-style: normal;"><tspan x="1299" y="1094.6875"><tspan>把npm包下载到本地，后利用这个包</tspan></tspan><tspan x="1299" y="1114.2875"><tspan>提供的能力，来初始化项目</tspan></tspan></text></g></g><g id="c5db917a846f"><rect x="1126" y="1162.953125" rx="1px" ry="1px" width="69" height="29" style="fill: transparent; stroke:none;"></rect><g><text text-anchor="start" align="top" anchor="start" font-size="14px" font-weight="400" fill="rgb(255, 255, 255)" style="font-size:14px;font-family: 微软雅黑;color:#FFFFFF;font-style:normal;text-align:left;font-weight:400;font-style: normal;"><tspan x="1135" y="1183.53125"><tspan>利用npx</tspan></tspan></text></g></g><g id="a239dcb1f1b9"><rect x="1271.15625" y="1139.875" rx="1px" ry="1px" width="170" height="29" style="fill: transparent; stroke:none;"></rect><g><text text-anchor="start" align="top" anchor="start" font-size="14px" font-weight="400" fill="rgb(255, 255, 255)" style="font-size:14px;font-family: 微软雅黑;color:#FFFFFF;font-style:normal;text-align:left;font-weight:400;font-style: normal;"><tspan x="1280.15625" y="1160.453125"><tspan>例如（@omi-door/cli）</tspan></tspan></text></g></g><g id="1ab6f6b3dd14"><rect x="1271.15625" y="1186.046875" rx="1px" ry="1px" width="158" height="29" style="fill: transparent; stroke:none;"></rect><g><text text-anchor="start" align="top" anchor="start" font-size="14px" font-weight="400" fill="rgb(255, 255, 255)" style="font-size:14px;font-family: 微软雅黑;color:#FFFFFF;font-style:normal;text-align:left;font-weight:400;font-style: normal;"><tspan x="1280.15625" y="1206.625"><tspan>本质就是子脚手架思路</tspan></tspan></text></g></g><g id="032575f42090"><rect x="618" y="1232.21875" rx="1px" ry="1px" width="74" height="29" style="fill: transparent; stroke:none;"></rect><g><text text-anchor="start" align="top" anchor="start" font-size="14px" font-weight="400" fill="rgb(255, 255, 255)" style="font-size:14px;font-family: 微软雅黑;color:#FFFFFF;font-style:normal;text-align:left;font-weight:400;font-style: normal;"><tspan x="627" y="1252.796875"><tspan>参数解析</tspan></tspan></text></g></g><g id="0197fcccef06"><rect x="618" y="1278.390625" rx="1px" ry="1px" width="74" height="29" style="fill: transparent; stroke:none;"></rect><g><text text-anchor="start" align="top" anchor="start" font-size="14px" font-weight="400" fill="rgb(255, 255, 255)" style="font-size:14px;font-family: 微软雅黑;color:#FFFFFF;font-style:normal;text-align:left;font-weight:400;font-style: normal;"><tspan x="627" y="1298.96875"><tspan>生产文件</tspan></tspan></text></g></g><g id="26f445f1ae2d"><rect x="768" y="1278.390625" rx="1px" ry="1px" width="147" height="29" style="fill: transparent; stroke:none;"></rect><g><text text-anchor="start" align="top" anchor="start" font-size="14px" font-weight="400" fill="rgb(255, 255, 255)" style="font-size:14px;font-family: 微软雅黑;color:#FFFFFF;font-style:normal;text-align:left;font-weight:400;font-style: normal;"><tspan x="777" y="1298.96875"><tspan>内存（代码）-&gt;硬盘</tspan></tspan></text></g></g><g id="0bb56e6d5f92"><rect x="618" y="1347.640625" rx="1px" ry="1px" width="116" height="29" style="fill: transparent; stroke:none;"></rect><g><text text-anchor="start" align="top" anchor="start" font-size="14px" font-weight="400" fill="rgb(255, 255, 255)" style="font-size:14px;font-family: 微软雅黑;color:#FFFFFF;font-style:normal;text-align:left;font-weight:400;font-style: normal;"><tspan x="627" y="1368.21875"><tspan>依赖分析和安装</tspan></tspan></text></g></g><g id="3d707110c354"><rect x="810" y="1347.640625" rx="1px" ry="1px" width="74" height="29" style="fill: transparent; stroke:none;"></rect><g><text text-anchor="start" align="top" anchor="start" font-size="14px" font-weight="400" fill="rgb(255, 255, 255)" style="font-size:14px;font-family: 微软雅黑;color:#FFFFFF;font-style:normal;text-align:left;font-weight:400;font-style: normal;"><tspan x="819" y="1368.21875"><tspan>是否安装</tspan></tspan></text></g></g><g id="e2c9de1f711c"><rect x="960" y="1324.5625" rx="1px" ry="1px" width="48" height="29" style="fill: transparent; stroke:none;"></rect><g><text text-anchor="start" align="top" anchor="start" font-size="14px" font-weight="400" fill="rgb(255, 255, 255)" style="font-size:14px;font-family: 微软雅黑;color:#FFFFFF;font-style:normal;text-align:left;font-weight:400;font-style: normal;"><tspan x="969" y="1345.140625"><tspan>是</tspan></tspan></text></g></g><g id="fd86356fd5f8"><rect x="960" y="1370.734375" rx="1px" ry="1px" width="48" height="29" style="fill: transparent; stroke:none;"></rect><g><text text-anchor="start" align="top" anchor="start" font-size="14px" font-weight="400" fill="rgb(255, 255, 255)" style="font-size:14px;font-family: 微软雅黑;color:#FFFFFF;font-style:normal;text-align:left;font-weight:400;font-style: normal;"><tspan x="969" y="1391.3125"><tspan>否</tspan></tspan></text></g></g><g id="3f837044fe97"><rect x="1084" y="1370.734375" rx="1px" ry="1px" width="160" height="29" style="fill: transparent; stroke:none;"></rect><g><text text-anchor="start" align="top" anchor="start" font-size="14px" font-weight="400" fill="rgb(255, 255, 255)" style="font-size:14px;font-family: 微软雅黑;color:#FFFFFF;font-style:normal;text-align:left;font-weight:400;font-style: normal;"><tspan x="1093" y="1391.3125"><tspan>直接生产package.json</tspan></tspan></text></g></g><g id="86b96077bb29"><rect x="494" y="1532.328125" rx="1px" ry="1px" width="48" height="30" style="fill: transparent; stroke:none;"></rect><g><text text-anchor="start" align="top" anchor="start" font-size="14px" font-weight="400" fill="rgb(255, 255, 255)" style="font-size:14px;font-family: 微软雅黑;color:#FFFFFF;font-style:normal;text-align:left;font-weight:400;font-style: normal;"><tspan x="503" y="1552.90625"><tspan>dev</tspan></tspan></text></g></g><g id="4007f3a111fa"><rect x="618" y="1486.15625" rx="1px" ry="1px" width="130" height="29" style="fill: transparent; stroke:none;"></rect><g><text text-anchor="start" align="top" anchor="start" font-size="14px" font-weight="400" fill="rgb(255, 255, 255)" style="font-size:14px;font-family: 微软雅黑;color:#FFFFFF;font-style:normal;text-align:left;font-weight:400;font-style: normal;"><tspan x="627" y="1506.734375"><tspan>启动一个开发服务</tspan></tspan></text></g></g><g id="ea38a6df446d"><rect x="824" y="1486.15625" rx="1px" ry="1px" width="50" height="29" style="fill: transparent; stroke:none;"></rect><g><text text-anchor="start" align="top" anchor="start" font-size="14px" font-weight="400" fill="rgb(255, 255, 255)" style="font-size:14px;font-family: 微软雅黑;color:#FFFFFF;font-style:normal;text-align:left;font-weight:400;font-style: normal;"><tspan x="833" y="1506.734375"><tspan>node</tspan></tspan></text></g></g><g id="b883e3c2e4f5"><rect x="950.015625" y="1416.90625" rx="1px" ry="1px" width="74" height="29" style="fill: transparent; stroke:none;"></rect><g><text text-anchor="start" align="top" anchor="start" font-size="14px" font-weight="400" fill="rgb(255, 255, 255)" style="font-size:14px;font-family: 微软雅黑;color:#FFFFFF;font-style:normal;text-align:left;font-weight:400;font-style: normal;"><tspan x="959.015625" y="1437.484375"><tspan>单页应用</tspan></tspan></text></g></g><g id="d0caa9926a5b"><rect x="950.015625" y="1463.078125" rx="1px" ry="1px" width="88" height="29" style="fill: transparent; stroke:none;"></rect><g><text text-anchor="start" align="top" anchor="start" font-size="14px" font-weight="400" fill="rgb(255, 255, 255)" style="font-size:14px;font-family: 微软雅黑;color:#FFFFFF;font-style:normal;text-align:left;font-weight:400;font-style: normal;"><tspan x="959.015625" y="1483.65625"><tspan>组件库项目</tspan></tspan></text></g></g><g id="f3a67c2107f4"><rect x="1114.015625" y="1463.078125" rx="1px" ry="1px" width="257" height="29" style="fill: transparent; stroke:none;"></rect><g><text text-anchor="start" align="top" anchor="start" font-size="14px" font-weight="400" fill="rgb(255, 255, 255)" style="font-size:14px;font-family: 微软雅黑;color:#FFFFFF;font-style:normal;text-align:left;font-weight:400;font-style: normal;"><tspan x="1123.015625" y="1483.65625"><tspan>常见（docz/storybook/styleguidist）</tspan></tspan></text></g></g><g id="e01e4158e9ce"><rect x="950.015625" y="1509.25" rx="1px" ry="1px" width="88" height="29" style="fill: transparent; stroke:none;"></rect><g><text text-anchor="start" align="top" anchor="start" font-size="14px" font-weight="400" fill="rgb(255, 255, 255)" style="font-size:14px;font-family: 微软雅黑;color:#FFFFFF;font-style:normal;text-align:left;font-weight:400;font-style: normal;"><tspan x="959.015625" y="1529.828125"><tspan>工具库项目</tspan></tspan></text></g></g><g id="de7aa6401c1b"><rect x="950.015625" y="1555.421875" rx="1px" ry="1px" width="144" height="29" style="fill: transparent; stroke:none;"></rect><g><text text-anchor="start" align="top" anchor="start" font-size="14px" font-weight="400" fill="rgb(255, 255, 255)" style="font-size:14px;font-family: 微软雅黑;color:#FFFFFF;font-style:normal;text-align:left;font-weight:400;font-style: normal;"><tspan x="959.015625" y="1576"><tspan>SSR/CSR/GSR项目</tspan></tspan></text></g></g><g id="9d1df2eb9d83"><rect x="618" y="1601.59375" rx="1px" ry="1px" width="189" height="29" style="fill: transparent; stroke:none;"></rect><g><text text-anchor="start" align="top" anchor="start" font-size="14px" font-weight="400" fill="rgb(255, 255, 255)" style="font-size:14px;font-family: 微软雅黑;color:#FFFFFF;font-style:normal;text-align:left;font-weight:400;font-style: normal;"><tspan x="627" y="1622.171875"><tspan>自动打开一个browser的tab</tspan></tspan></text></g></g><g id="eeec3acf1023"><rect x="618" y="1647.765625" rx="1px" ry="1px" width="123" height="29" style="fill: transparent; stroke:none;"></rect><g><text text-anchor="start" align="top" anchor="start" font-size="14px" font-weight="400" fill="rgb(255, 255, 255)" style="font-size:14px;font-family: 微软雅黑;color:#FFFFFF;font-style:normal;text-align:left;font-weight:400;font-style: normal;"><tspan x="627" y="1668.34375"><tspan>复用已打开的tab</tspan></tspan></text></g></g><g id="eac1807ebaff"><rect x="494" y="1717.015625" rx="1px" ry="1px" width="49" height="29" style="fill: transparent; stroke:none;"></rect><g><text text-anchor="start" align="top" anchor="start" font-size="14px" font-weight="400" fill="rgb(255, 255, 255)" style="font-size:14px;font-family: 微软雅黑;color:#FFFFFF;font-style:normal;text-align:left;font-weight:400;font-style: normal;"><tspan x="503" y="1737.59375"><tspan>build</tspan></tspan></text></g></g><g id="655d7425d6c8"><rect x="619.125" y="1693.9375" rx="1px" ry="1px" width="102" height="29" style="fill: transparent; stroke:none;"></rect><g><text text-anchor="start" align="top" anchor="start" font-size="14px" font-weight="400" fill="rgb(255, 255, 255)" style="font-size:14px;font-family: 微软雅黑;color:#FFFFFF;font-style:normal;text-align:left;font-weight:400;font-style: normal;"><tspan x="628.125" y="1714.515625"><tspan>构建前的校验</tspan></tspan></text></g></g><g id="16691e2286db"><rect x="619.125" y="1740.109375" rx="1px" ry="1px" width="116" height="29" style="fill: transparent; stroke:none;"></rect><g><text text-anchor="start" align="top" anchor="start" font-size="14px" font-weight="400" fill="rgb(255, 255, 255)" style="font-size:14px;font-family: 微软雅黑;color:#FFFFFF;font-style:normal;text-align:left;font-weight:400;font-style: normal;"><tspan x="628.125" y="1760.6875"><tspan>构建自定义配置</tspan></tspan></text></g></g><g id="a762fefda4c3"><rect x="326" y="482.84375" rx="1px" ry="1px" width="60" height="30" style="fill: transparent; stroke:none;"></rect><g><text text-anchor="start" align="top" anchor="start" font-size="16px" font-weight="normal" fill="rgb(255, 255, 255)" style="font-size:16px;font-family: 微软雅黑;color:#FFFFFF;font-style:normal;text-align:left;font-weight:normal;font-style: normal;"><tspan x="340" y="504.5"><tspan>准备</tspan></tspan></text></g></g><g id="683d223b6ece"><rect x="462" y="206.25" rx="1px" ry="1px" width="158" height="29" style="fill: transparent; stroke:none;"></rect><g><text text-anchor="start" align="top" anchor="start" font-size="14px" font-weight="400" fill="rgb(255, 255, 255)" style="font-size:14px;font-family: 微软雅黑;color:#FFFFFF;font-style:normal;text-align:left;font-weight:400;font-style: normal;"><tspan x="471" y="226.828125"><tspan>调研（业内怎么玩的）</tspan></tspan></text></g></g><g id="44e8152eae61"><rect x="696" y="137" rx="1px" ry="1px" width="48" height="29" style="fill: transparent; stroke:none;"></rect><g><text text-anchor="start" align="top" anchor="start" font-size="14px" font-weight="400" fill="rgb(255, 255, 255)" style="font-size:14px;font-family: 微软雅黑;color:#FFFFFF;font-style:normal;text-align:left;font-weight:400;font-style: normal;"><tspan x="705" y="157.578125"><tspan>cra</tspan></tspan></text></g></g><g id="080f52591d39"><rect x="696" y="183.171875" rx="1px" ry="1px" width="63" height="29" style="fill: transparent; stroke:none;"></rect><g><text text-anchor="start" align="top" anchor="start" font-size="14px" font-weight="400" fill="rgb(255, 255, 255)" style="font-size:14px;font-family: 微软雅黑;color:#FFFFFF;font-style:normal;text-align:left;font-weight:400;font-style: normal;"><tspan x="705" y="203.75"><tspan>vue-cli</tspan></tspan></text></g></g><g id="ea1d1b1d9fdb"><rect x="696" y="229.34375" rx="1px" ry="1px" width="48" height="29" style="fill: transparent; stroke:none;"></rect><g><text text-anchor="start" align="top" anchor="start" font-size="14px" font-weight="400" fill="rgb(255, 255, 255)" style="font-size:14px;font-family: 微软雅黑;color:#FFFFFF;font-style:normal;text-align:left;font-weight:400;font-style: normal;"><tspan x="705" y="249.921875"><tspan>umi</tspan></tspan></text></g></g><g id="360b9dacc28c"><rect x="696" y="275.515625" rx="1px" ry="1px" width="67" height="29" style="fill: transparent; stroke:none;"></rect><g><text text-anchor="start" align="top" anchor="start" font-size="14px" font-weight="400" fill="rgb(255, 255, 255)" style="font-size:14px;font-family: 微软雅黑;color:#FFFFFF;font-style:normal;text-align:left;font-weight:400;font-style: normal;"><tspan x="705" y="296.09375"><tspan>midway</tspan></tspan></text></g></g><g id="a267a6151133"><rect x="462" y="575.625" rx="1px" ry="1px" width="144" height="29" style="fill: transparent; stroke:none;"></rect><g><text text-anchor="start" align="top" anchor="start" font-size="14px" font-weight="400" fill="rgb(255, 255, 255)" style="font-size:14px;font-family: 微软雅黑;color:#FFFFFF;font-style:normal;text-align:left;font-weight:400;font-style: normal;"><tspan x="471" y="596.203125"><tspan>依赖第三方开源项目</tspan></tspan></text></g></g><g id="3e9ebc9d8fec"><rect x="682" y="344.765625" rx="1px" ry="1px" width="130" height="29" style="fill: transparent; stroke:none;"></rect><g><text text-anchor="start" align="top" anchor="start" font-size="14px" font-weight="400" fill="rgb(255, 255, 255)" style="font-size:14px;font-family: 微软雅黑;color:#FFFFFF;font-style:normal;text-align:left;font-weight:400;font-style: normal;"><tspan x="691" y="365.34375"><tspan>收集用户输入信息</tspan></tspan></text></g></g><g id="5fa6ad538f9f"><rect x="888" y="321.6875" rx="1px" ry="1px" width="53" height="29" style="fill: transparent; stroke:none;"></rect><g><text text-anchor="start" align="top" anchor="start" font-size="14px" font-weight="400" fill="rgb(255, 255, 255)" style="font-size:14px;font-family: 微软雅黑;color:#FFFFFF;font-style:normal;text-align:left;font-weight:400;font-style: normal;"><tspan x="897" y="342.265625"><tspan>yargs</tspan></tspan></text></g></g><g id="f761d011e570"><rect x="888" y="367.859375" rx="1px" ry="1px" width="95" height="29" style="fill: transparent; stroke:none;"></rect><g><text text-anchor="start" align="top" anchor="start" font-size="14px" font-weight="400" fill="rgb(255, 255, 255)" style="font-size:14px;font-family: 微软雅黑;color:#FFFFFF;font-style:normal;text-align:left;font-weight:400;font-style: normal;"><tspan x="897" y="388.4375"><tspan>commander</tspan></tspan></text></g></g><g id="dc047590eb8e"><rect x="682" y="414.03125" rx="1px" ry="1px" width="180" height="29" style="fill: transparent; stroke:none;"></rect><g><text text-anchor="start" align="top" anchor="start" font-size="14px" font-weight="400" fill="rgb(255, 255, 255)" style="font-size:14px;font-family: 微软雅黑;color:#FFFFFF;font-style:normal;text-align:left;font-weight:400;font-style: normal;"><tspan x="691" y="434.609375"><tspan>提供REPL（交互解释器）</tspan></tspan></text></g></g><g id="75e57332a5ab"><rect x="937.609375" y="414.03125" rx="1px" ry="1px" width="62" height="29" style="fill: transparent; stroke:none;"></rect><g><text text-anchor="start" align="top" anchor="start" font-size="14px" font-weight="400" fill="rgb(255, 255, 255)" style="font-size:14px;font-family: 微软雅黑;color:#FFFFFF;font-style:normal;text-align:left;font-weight:400;font-style: normal;"><tspan x="946.609375" y="434.609375"><tspan>inquier</tspan></tspan></text></g></g><g id="8590cbee9be1"><rect x="682" y="575.625" rx="1px" ry="1px" width="88" height="30" style="fill: transparent; stroke:none;"></rect><g><text text-anchor="start" align="top" anchor="start" font-size="14px" font-weight="400" fill="rgb(255, 255, 255)" style="font-size:14px;font-family: 微软雅黑;color:#FFFFFF;font-style:normal;text-align:left;font-weight:400;font-style: normal;"><tspan x="691" y="596.203125"><tspan>个性化输出</tspan></tspan></text></g></g><g id="042278b029e3"><rect x="846" y="460.203125" rx="1px" ry="1px" width="52" height="29" style="fill: transparent; stroke:none;"></rect><g><text text-anchor="start" align="top" anchor="start" font-size="14px" font-weight="400" fill="rgb(255, 255, 255)" style="font-size:14px;font-family: 微软雅黑;color:#FFFFFF;font-style:normal;text-align:left;font-weight:400;font-style: normal;"><tspan x="855" y="480.78125"><tspan>chalk</tspan></tspan></text></g></g><g id="b4f88e9a91ad"><rect x="846" y="506.375" rx="1px" ry="1px" width="58" height="29" style="fill: transparent; stroke:none;"></rect><g><text text-anchor="start" align="top" anchor="start" font-size="14px" font-weight="400" fill="rgb(255, 255, 255)" style="font-size:14px;font-family: 微软雅黑;color:#FFFFFF;font-style:normal;text-align:left;font-weight:400;font-style: normal;"><tspan x="855" y="526.953125"><tspan>colors</tspan></tspan></text></g></g><g id="87a4391989f1"><rect x="846" y="552.546875" rx="1px" ry="1px" width="48" height="29" style="fill: transparent; stroke:none;"></rect><g><text text-anchor="start" align="top" anchor="start" font-size="14px" font-weight="400" fill="rgb(255, 255, 255)" style="font-size:14px;font-family: 微软雅黑;color:#FFFFFF;font-style:normal;text-align:left;font-weight:400;font-style: normal;"><tspan x="855" y="573.125"><tspan>ora</tspan></tspan></text></g></g><g id="1f6d443d3971"><rect x="846" y="598.71875" rx="1px" ry="1px" width="64" height="29" style="fill: transparent; stroke:none;"></rect><g><text text-anchor="start" align="top" anchor="start" font-size="14px" font-weight="400" fill="rgb(255, 255, 255)" style="font-size:14px;font-family: 微软雅黑;color:#FFFFFF;font-style:normal;text-align:left;font-weight:400;font-style: normal;"><tspan x="855" y="619.296875"><tspan>signale</tspan></tspan></text></g></g><g id="2a1e5200176a"><rect x="846" y="644.890625" rx="1px" ry="1px" width="48" height="29" style="fill: transparent; stroke:none;"></rect><g><text text-anchor="start" align="top" anchor="start" font-size="14px" font-weight="400" fill="rgb(255, 255, 255)" style="font-size:14px;font-family: 微软雅黑;color:#FFFFFF;font-style:normal;text-align:left;font-weight:400;font-style: normal;"><tspan x="855" y="665.46875"><tspan>clui</tspan></tspan></text></g></g><g id="13237ecd24bd"><rect x="846" y="691.0625" rx="1px" ry="1px" width="51" height="29" style="fill: transparent; stroke:none;"></rect><g><text text-anchor="start" align="top" anchor="start" font-size="14px" font-weight="400" fill="rgb(255, 255, 255)" style="font-size:14px;font-family: 微软雅黑;color:#FFFFFF;font-style:normal;text-align:left;font-weight:400;font-style: normal;"><tspan x="855" y="711.640625"><tspan>figlet</tspan></tspan></text></g></g><g id="a9ed3e90e966"><rect x="682" y="783.40625" rx="1px" ry="1px" width="116" height="29" style="fill: transparent; stroke:none;"></rect><g><text text-anchor="start" align="top" anchor="start" font-size="14px" font-weight="400" fill="rgb(255, 255, 255)" style="font-size:14px;font-family: 微软雅黑;color:#FFFFFF;font-style:normal;text-align:left;font-weight:400;font-style: normal;"><tspan x="691" y="803.984375"><tspan>较验输入正确性</tspan></tspan></text></g></g><g id="8b36d33e24a6"><rect x="874" y="737.234375" rx="1px" ry="1px" width="64" height="29" style="fill: transparent; stroke:none;"></rect><g><text text-anchor="start" align="top" anchor="start" font-size="14px" font-weight="400" fill="rgb(255, 255, 255)" style="font-size:14px;font-family: 微软雅黑;color:#FFFFFF;font-style:normal;text-align:left;font-weight:400;font-style: normal;"><tspan x="883" y="757.8125"><tspan>semver</tspan></tspan></text></g></g><g id="2b68386928eb"><rect x="874" y="783.40625" rx="1px" ry="1px" width="212" height="29" style="fill: transparent; stroke:none;"></rect><g><text text-anchor="start" align="top" anchor="start" font-size="14px" font-weight="400" fill="rgb(255, 255, 255)" style="font-size:14px;font-family: 微软雅黑;color:#FFFFFF;font-style:normal;text-align:left;font-weight:400;font-style: normal;"><tspan x="883" y="803.984375"><tspan>validate-npm-package-name</tspan></tspan></text></g></g><g id="dff568965ba6"><rect x="874" y="829.578125" rx="1px" ry="1px" width="51" height="29" style="fill: transparent; stroke:none;"></rect><g><text text-anchor="start" align="top" anchor="start" font-size="14px" font-weight="400" fill="rgb(255, 255, 255)" style="font-size:14px;font-family: 微软雅黑;color:#FFFFFF;font-style:normal;text-align:left;font-weight:400;font-style: normal;"><tspan x="883" y="850.15625"><tspan>leven</tspan></tspan></text></g></g><g id="36ea6654722e"><rect x="326" y="52.640625" rx="1px" ry="1px" width="60" height="30" style="fill: transparent; stroke:none;"></rect><g><text text-anchor="start" align="top" anchor="start" font-size="16px" font-weight="normal" fill="rgb(255, 255, 255)" style="font-size:16px;font-family: 微软雅黑;color:#FFFFFF;font-style:normal;text-align:left;font-weight:normal;font-style: normal;"><tspan x="340" y="74.296875"><tspan>目的</tspan></tspan></text></g></g><g id="af1dc2abae8e"><rect x="462" y="30" rx="1px" ry="1px" width="48" height="29" style="fill: transparent; stroke:none;"></rect><g><text text-anchor="start" align="top" anchor="start" font-size="14px" font-weight="400" fill="rgb(255, 255, 255)" style="font-size:14px;font-family: 微软雅黑;color:#FFFFFF;font-style:normal;text-align:left;font-weight:400;font-style: normal;"><tspan x="471" y="50.578125"><tspan>效率</tspan></tspan></text></g></g><g id="6df778ab32ef"><rect x="586" y="30" rx="1px" ry="1px" width="130" height="29" style="fill: transparent; stroke:none;"></rect><g><text text-anchor="start" align="top" anchor="start" font-size="14px" font-weight="400" fill="rgb(255, 255, 255)" style="font-size:14px;font-family: 微软雅黑;color:#FFFFFF;font-style:normal;text-align:left;font-weight:400;font-style: normal;"><tspan x="595" y="50.578125"><tspan>一键生成一个项目</tspan></tspan></text></g></g><g id="2ba26ece19bc"><rect x="462" y="76.171875" rx="1px" ry="1px" width="48" height="29" style="fill: transparent; stroke:none;"></rect><g><text text-anchor="start" align="top" anchor="start" font-size="14px" font-weight="400" fill="rgb(255, 255, 255)" style="font-size:14px;font-family: 微软雅黑;color:#FFFFFF;font-style:normal;text-align:left;font-weight:400;font-style: normal;"><tspan x="471" y="96.75"><tspan>性能</tspan></tspan></text></g></g><g id="fe623f7f5572"><rect x="586" y="76.171875" rx="1px" ry="1px" width="249" height="29" style="fill: transparent; stroke:none;"></rect><g><text text-anchor="start" align="top" anchor="start" font-size="14px" font-weight="400" fill="rgb(255, 255, 255)" style="font-size:14px;font-family: 微软雅黑;color:#FFFFFF;font-style:normal;text-align:left;font-weight:400;font-style: normal;"><tspan x="595" y="96.75"><tspan>固定工程化搭配（性能/兼容性问题）</tspan></tspan></text></g></g><g transform="translate(326, 1801)" id="sdjakdjak0"><g id="subline_60547f3823fe" transform="translate(0.5,-0.5)"></g><g transform="translate(0.5,0)"></g><g class="svg-summary-con" transform="translate(0.5,0.5)"></g><g class="svg-boundary-con" transform="translate(0.5,0.5)"></g></g><g transform="translate(326, 891)" id="sdjakdjak1"><g id="subline_5ab575c2b0b9" transform="translate(0.5,-0.5)"><path id="line_29fba9b82a3f" d="M 92 456 L 92 456 M 92 456 C 138 456 130 270 168 270 L 216 270" p="5ab575c2b0b9" stroke="#0FBAB0" fill="none" stroke-linecap="round" stroke-width="3"></path><path id="line_4116d0483267" d="M 216 270 L 216 270 M 216 270 C 262 270 254 178 292 178 L 450 178" p="29fba9b82a3f" stroke="#0FBAB0" fill="none" stroke-linecap="round" stroke-width="3"></path><path id="line_f588ee1439e1" d="M 450 178 L 450 178 M 450 178 C 496 178 488 30 526 30 L 698 30" p="4116d0483267" stroke="#0FBAB0" fill="none" stroke-linecap="round" stroke-width="3"></path><path id="line_44bb26ce7295" d="M 450 178 L 450 178 M 450 178 C 496 178 488 202 526 202 L 574 202" p="4116d0483267" stroke="#0FBAB0" fill="none" stroke-linecap="round" stroke-width="3"></path><path id="line_68180056a720" d="M 574 202 L 574 202 M 574 202 C 620 202 612 202 650 202 L 724 202" p="44bb26ce7295" stroke="#0FBAB0" fill="none" stroke-linecap="round" stroke-width="3"></path><path id="line_37fb4c5204b2" d="M 724 202 L 724 202 M 724 202 C 770 202 762 99 800 99 L 936 99" p="68180056a720" stroke="#0FBAB0" fill="none" stroke-linecap="round" stroke-width="3"></path><path id="line_7df2ba020d52" d="M 936 99 L 936 99 M 936 99 C 981.78125 99 973.890625 99 1011.78125 99 L 1059.78125 99" p="37fb4c5204b2" stroke="#0FBAB0" fill="none" stroke-linecap="round" stroke-width="3"></path><path id="line_a4b325b6c93a" d="M 1059.78125 99 L 1059.78125 99 M 1059.78125 99 C 1105.78125 99 1097.78125 76 1135.78125 76 L 1219.78125 76" p="7df2ba020d52" stroke="#0FBAB0" fill="none" stroke-linecap="round" stroke-width="3"></path><path id="line_c9c831865cd0" d="M 1059.78125 99 L 1059.78125 99 M 1059.78125 99 C 1105.78125 99 1097.78125 122 1135.78125 122 L 1202.78125 122" p="7df2ba020d52" stroke="#0FBAB0" fill="none" stroke-linecap="round" stroke-width="3"></path><path id="line_bfe636e81661" d="M 724 202 L 724 202 M 724 202 C 770 202 762 201 800 201 L 888 201" p="68180056a720" stroke="#0FBAB0" fill="none" stroke-linecap="round" stroke-width="3"></path><path id="line_a0446dc85042" d="M 888 201 L 888 201 M 888 201 C 934 201 926 169 964 169 L 1073 169" p="bfe636e81661" stroke="#0FBAB0" fill="none" stroke-linecap="round" stroke-width="3"></path><path id="line_7fd7b682807b" d="M 888 201 L 888 201 M 888 201 C 934 201 926 233 964 233 L 1206 233" p="bfe636e81661" stroke="#0FBAB0" fill="none" stroke-linecap="round" stroke-width="3"></path><path id="line_c5db917a846f" d="M 724 202 L 724 202 M 724 202 C 770 202 762 302 800 302 L 869 302" p="68180056a720" stroke="#0FBAB0" fill="none" stroke-linecap="round" stroke-width="3"></path><path id="line_a239dcb1f1b9" d="M 869 302 L 869 302 M 869 302 C 915.15625 302 907.078125 279 945.15625 279 L 1115.15625 279" p="c5db917a846f" stroke="#0FBAB0" fill="none" stroke-linecap="round" stroke-width="3"></path><path id="line_1ab6f6b3dd14" d="M 869 302 L 869 302 M 869 302 C 915.15625 302 907.078125 325 945.15625 325 L 1103.15625 325" p="c5db917a846f" stroke="#0FBAB0" fill="none" stroke-linecap="round" stroke-width="3"></path><path id="line_032575f42090" d="M 216 270 L 216 270 M 216 270 C 262 270 254 371 292 371 L 366 371" p="29fba9b82a3f" stroke="#0FBAB0" fill="none" stroke-linecap="round" stroke-width="3"></path><path id="line_0197fcccef06" d="M 216 270 L 216 270 M 216 270 C 262 270 254 417 292 417 L 366 417" p="29fba9b82a3f" stroke="#0FBAB0" fill="none" stroke-linecap="round" stroke-width="3"></path><path id="line_26f445f1ae2d" d="M 366 417 L 366 417 M 366 417 C 412 417 404 417 442 417 L 589 417" p="0197fcccef06" stroke="#0FBAB0" fill="none" stroke-linecap="round" stroke-width="3"></path><path id="line_0bb56e6d5f92" d="M 216 270 L 216 270 M 216 270 C 262 270 254 487 292 487 L 408 487" p="29fba9b82a3f" stroke="#0FBAB0" fill="none" stroke-linecap="round" stroke-width="3"></path><path id="line_3d707110c354" d="M 408 487 L 408 487 M 408 487 C 454 487 446 487 484 487 L 558 487" p="0bb56e6d5f92" stroke="#0FBAB0" fill="none" stroke-linecap="round" stroke-width="3"></path><path id="line_e2c9de1f711c" d="M 558 487 L 558 487 M 558 487 C 604 487 596 464 634 464 L 682 464" p="3d707110c354" stroke="#0FBAB0" fill="none" stroke-linecap="round" stroke-width="3"></path><path id="line_fd86356fd5f8" d="M 558 487 L 558 487 M 558 487 C 604 487 596 510 634 510 L 682 510" p="3d707110c354" stroke="#0FBAB0" fill="none" stroke-linecap="round" stroke-width="3"></path><path id="line_3f837044fe97" d="M 682 510 L 682 510 M 682 510 C 728 510 720 510 758 510 L 918 510" p="fd86356fd5f8" stroke="#0FBAB0" fill="none" stroke-linecap="round" stroke-width="3"></path><path id="line_86b96077bb29" d="M 92 456 L 92 456 M 92 456 C 138 456 130 673 168 673 L 216 673" p="5ab575c2b0b9" stroke="#0FBAB0" fill="none" stroke-linecap="round" stroke-width="3"></path><path id="line_4007f3a111fa" d="M 216 673 L 216 673 M 216 673 C 262 673 254 625 292 625 L 422 625" p="86b96077bb29" stroke="#0FBAB0" fill="none" stroke-linecap="round" stroke-width="3"></path><path id="line_ea38a6df446d" d="M 422 625 L 422 625 M 422 625 C 468 625 460 625 498 625 L 548 625" p="4007f3a111fa" stroke="#0FBAB0" fill="none" stroke-linecap="round" stroke-width="3"></path><path id="line_b883e3c2e4f5" d="M 548 625 L 548 625 M 548 625 C 594.015625 625 586.0078125 556 624.015625 556 L 698.015625 556" p="ea38a6df446d" stroke="#0FBAB0" fill="none" stroke-linecap="round" stroke-width="3"></path><path id="line_d0caa9926a5b" d="M 548 625 L 548 625 M 548 625 C 594.015625 625 586.0078125 602 624.015625 602 L 712.015625 602" p="ea38a6df446d" stroke="#0FBAB0" fill="none" stroke-linecap="round" stroke-width="3"></path><path id="line_f3a67c2107f4" d="M 712.015625 602 L 712.015625 602 M 712.015625 602 C 758.015625 602 750.015625 602 788.015625 602 L 1045.015625 602" p="d0caa9926a5b" stroke="#0FBAB0" fill="none" stroke-linecap="round" stroke-width="3"></path><path id="line_e01e4158e9ce" d="M 548 625 L 548 625 M 548 625 C 594.015625 625 586.0078125 648 624.015625 648 L 712.015625 648" p="ea38a6df446d" stroke="#0FBAB0" fill="none" stroke-linecap="round" stroke-width="3"></path><path id="line_de7aa6401c1b" d="M 548 625 L 548 625 M 548 625 C 594.015625 625 586.0078125 694 624.015625 694 L 768.015625 694" p="ea38a6df446d" stroke="#0FBAB0" fill="none" stroke-linecap="round" stroke-width="3"></path><path id="line_9d1df2eb9d83" d="M 216 673 L 216 673 M 216 673 C 262 673 254 741 292 741 L 481 741" p="86b96077bb29" stroke="#0FBAB0" fill="none" stroke-linecap="round" stroke-width="3"></path><path id="line_eeec3acf1023" d="M 216 673 L 216 673 M 216 673 C 262 673 254 787 292 787 L 415 787" p="86b96077bb29" stroke="#0FBAB0" fill="none" stroke-linecap="round" stroke-width="3"></path><path id="line_eac1807ebaff" d="M 92 456 L 92 456 M 92 456 C 138 456 130 856 168 856 L 217 856" p="5ab575c2b0b9" stroke="#0FBAB0" fill="none" stroke-linecap="round" stroke-width="3"></path><path id="line_655d7425d6c8" d="M 217 856 L 217 856 M 217 856 C 263.125 856 255.0625 833 293.125 833 L 395.125 833" p="eac1807ebaff" stroke="#0FBAB0" fill="none" stroke-linecap="round" stroke-width="3"></path><path id="line_16691e2286db" d="M 217 856 L 217 856 M 217 856 C 263.125 856 255.0625 879 293.125 879 L 409.125 879" p="eac1807ebaff" stroke="#0FBAB0" fill="none" stroke-linecap="round" stroke-width="3"></path></g><g transform="translate(0.5,0)"></g><g class="svg-summary-con" transform="translate(0.5,0.5)"></g><g class="svg-boundary-con" transform="translate(0.5,0.5)"></g></g><g transform="translate(326, 137)" id="sdjakdjak2"><g id="subline_a762fefda4c3" transform="translate(0.5,-0.5)"><path id="line_683d223b6ece" d="M 60 378 L 60 378 M 60 378 C 106 378 98 99 136 99 L 294 99" p="a762fefda4c3" stroke="#0F80C4" fill="none" stroke-linecap="round" stroke-width="3"></path><path id="line_44e8152eae61" d="M 294 99 L 294 99 M 294 99 C 340 99 332 30 370 30 L 418 30" p="683d223b6ece" stroke="#0F80C4" fill="none" stroke-linecap="round" stroke-width="3"></path><path id="line_080f52591d39" d="M 294 99 L 294 99 M 294 99 C 340 99 332 76 370 76 L 433 76" p="683d223b6ece" stroke="#0F80C4" fill="none" stroke-linecap="round" stroke-width="3"></path><path id="line_ea1d1b1d9fdb" d="M 294 99 L 294 99 M 294 99 C 340 99 332 122 370 122 L 418 122" p="683d223b6ece" stroke="#0F80C4" fill="none" stroke-linecap="round" stroke-width="3"></path><path id="line_360b9dacc28c" d="M 294 99 L 294 99 M 294 99 C 340 99 332 169 370 169 L 437 169" p="683d223b6ece" stroke="#0F80C4" fill="none" stroke-linecap="round" stroke-width="3"></path><path id="line_a267a6151133" d="M 60 378 L 60 378 M 60 378 C 106 378 98 469 136 469 L 280 469" p="a762fefda4c3" stroke="#0F80C4" fill="none" stroke-linecap="round" stroke-width="3"></path><path id="line_3e9ebc9d8fec" d="M 280 469 L 280 469 M 280 469 C 326 469 318 238 356 238 L 486 238" p="a267a6151133" stroke="#0F80C4" fill="none" stroke-linecap="round" stroke-width="3"></path><path id="line_5fa6ad538f9f" d="M 486 238 L 486 238 M 486 238 C 532 238 524 215 562 215 L 615 215" p="3e9ebc9d8fec" stroke="#0F80C4" fill="none" stroke-linecap="round" stroke-width="3"></path><path id="line_f761d011e570" d="M 486 238 L 486 238 M 486 238 C 532 238 524 261 562 261 L 657 261" p="3e9ebc9d8fec" stroke="#0F80C4" fill="none" stroke-linecap="round" stroke-width="3"></path><path id="line_dc047590eb8e" d="M 280 469 L 280 469 M 280 469 C 326 469 318 307 356 307 L 536 307" p="a267a6151133" stroke="#0F80C4" fill="none" stroke-linecap="round" stroke-width="3"></path><path id="line_75e57332a5ab" d="M 536 307 L 536 307 M 536 307 C 581.609375 307 573.8046875 307 611.609375 307 L 673.609375 307" p="dc047590eb8e" stroke="#0F80C4" fill="none" stroke-linecap="round" stroke-width="3"></path><path id="line_8590cbee9be1" d="M 280 469 L 280 469 M 280 469 C 326 469 318 470 356 470 L 444 470" p="a267a6151133" stroke="#0F80C4" fill="none" stroke-linecap="round" stroke-width="3"></path><path id="line_042278b029e3" d="M 444 470 L 444 470 M 444 470 C 490 470 482 353 520 353 L 572 353" p="8590cbee9be1" stroke="#0F80C4" fill="none" stroke-linecap="round" stroke-width="3"></path><path id="line_b4f88e9a91ad" d="M 444 470 L 444 470 M 444 470 C 490 470 482 399 520 399 L 578 399" p="8590cbee9be1" stroke="#0F80C4" fill="none" stroke-linecap="round" stroke-width="3"></path><path id="line_87a4391989f1" d="M 444 470 L 444 470 M 444 470 C 490 470 482 446 520 446 L 568 446" p="8590cbee9be1" stroke="#0F80C4" fill="none" stroke-linecap="round" stroke-width="3"></path><path id="line_1f6d443d3971" d="M 444 470 L 444 470 M 444 470 C 490 470 482 492 520 492 L 584 492" p="8590cbee9be1" stroke="#0F80C4" fill="none" stroke-linecap="round" stroke-width="3"></path><path id="line_2a1e5200176a" d="M 444 470 L 444 470 M 444 470 C 490 470 482 538 520 538 L 568 538" p="8590cbee9be1" stroke="#0F80C4" fill="none" stroke-linecap="round" stroke-width="3"></path><path id="line_13237ecd24bd" d="M 444 470 L 444 470 M 444 470 C 490 470 482 584 520 584 L 571 584" p="8590cbee9be1" stroke="#0F80C4" fill="none" stroke-linecap="round" stroke-width="3"></path><path id="line_a9ed3e90e966" d="M 280 469 L 280 469 M 280 469 C 326 469 318 676 356 676 L 472 676" p="a267a6151133" stroke="#0F80C4" fill="none" stroke-linecap="round" stroke-width="3"></path><path id="line_8b36d33e24a6" d="M 472 676 L 472 676 M 472 676 C 518 676 510 630 548 630 L 612 630" p="a9ed3e90e966" stroke="#0F80C4" fill="none" stroke-linecap="round" stroke-width="3"></path><path id="line_2b68386928eb" d="M 472 676 L 472 676 M 472 676 C 518 676 510 676 548 676 L 760 676" p="a9ed3e90e966" stroke="#0F80C4" fill="none" stroke-linecap="round" stroke-width="3"></path><path id="line_dff568965ba6" d="M 472 676 L 472 676 M 472 676 C 518 676 510 723 548 723 L 599 723" p="a9ed3e90e966" stroke="#0F80C4" fill="none" stroke-linecap="round" stroke-width="3"></path></g><g transform="translate(0.5,0)"></g><g class="svg-summary-con" transform="translate(0.5,0.5)"></g><g class="svg-boundary-con" transform="translate(0.5,0.5)"></g></g><g transform="translate(326, 30)" id="sdjakdjak3"><g id="subline_36ea6654722e" transform="translate(0.5,-0.5)"><path id="line_af1dc2abae8e" d="M 60 55 L 60 55 M 60 55 C 106 55 98 30 136 30 L 184 30" p="36ea6654722e" stroke="#F88A35" fill="none" stroke-linecap="round" stroke-width="3"></path><path id="line_6df778ab32ef" d="M 184 30 L 184 30 M 184 30 C 230 30 222 30 260 30 L 390 30" p="af1dc2abae8e" stroke="#F88A35" fill="none" stroke-linecap="round" stroke-width="3"></path><path id="line_2ba26ece19bc" d="M 60 55 L 60 55 M 60 55 C 106 55 98 76 136 76 L 184 76" p="36ea6654722e" stroke="#F88A35" fill="none" stroke-linecap="round" stroke-width="3"></path><path id="line_fe623f7f5572" d="M 184 76 L 184 76 M 184 76 C 230 76 222 76 260 76 L 509 76" p="2ba26ece19bc" stroke="#F88A35" fill="none" stroke-linecap="round" stroke-width="3"></path></g><g transform="translate(0.5,0)"></g><g class="svg-summary-con" transform="translate(0.5,0.5)"></g><g class="svg-boundary-con" transform="translate(0.5,0.5)"></g></g><g transform="translate(30, 911)" id="sdjakdjak4"><g id="subline_root" transform="translate(0.5,-0.5)"></g><g transform="translate(0.5,0)"></g><g class="svg-summary-con" transform="translate(0.5,0.5)"></g><g class="svg-boundary-con" transform="translate(0.5,0.5)"></g></g><g id="root"><rect x="30" y="911" rx="7px" ry="7px" width="196" height="68" style="fill: #ffffff; stroke:none;"></rect><g><text text-anchor="start" align="top" anchor="start" font-size="24px" font-weight="normal" fill="rgb(42, 46, 54)" style="font-size:24px;font-family: 微软雅黑;color:#2A2E36;font-style:normal;text-align:left;font-weight:normal;font-style: normal;"><tspan x="68" y="953"><tspan>前端脚手架</tspan></tspan></text></g></g></svg>
